<?xml version="1.0" standalone="no"?>
<!DOCTYPE svg PUBLIC "-//W3C//DTD SVG 20010904//EN"
 "http://www.w3.org/TR/2001/REC-SVG-20010904/DTD/svg10.dtd">
<svg version="1.0" xmlns="http://www.w3.org/2000/svg"
 width="500.000000pt" height="500.000000pt" viewBox="0 0 500.000000 500.000000"
 preserveAspectRatio="xMidYMid meet">

<g transform="translate(0.000000,500.000000) scale(0.100000,-0.100000)"
fill="#000000" stroke="none">
<path d="M1961 4780 c-24 -47 -45 -87 -47 -89 -2 -2 -29 6 -60 18 -31 12 -59
19 -62 16 -3 -2 3 -7 12 -11 9 -3 16 -12 16 -19 0 -17 35 -47 45 -38 4 5 5 3
2 -4 -4 -6 5 -20 19 -31 l27 -19 -57 -97 c-32 -54 -56 -99 -54 -101 2 -2 39
31 82 73 46 44 81 71 84 64 2 -7 9 -9 14 -6 7 4 8 2 4 -4 -4 -7 0 -22 8 -34
15 -21 16 -21 16 -3 1 19 1 19 11 2 6 -10 9 -24 6 -31 -3 -6 1 -23 8 -37 12
-21 13 -14 9 56 -3 44 -7 86 -9 93 -3 7 10 21 28 32 17 11 39 24 47 30 8 6 28
19 44 29 l28 19 -28 5 c-16 3 -50 9 -76 12 -44 6 -48 9 -49 33 0 15 -6 50 -13
77 l-12 50 -43 -85z m27 -88 c-14 -15 -29 -37 -32 -49 -12 -37 -29 -43 -54
-17 -25 26 -19 33 8 9 16 -14 20 -10 49 44 17 32 31 65 30 72 0 11 -2 11 -6 2
-2 -7 -9 -13 -14 -13 -5 0 -4 10 2 22 12 22 12 22 27 -10 15 -31 15 -33 -10
-60z m28 -7 c-3 -8 1 -21 9 -29 17 -16 10 -26 -19 -26 -15 0 -17 3 -8 12 20
20 13 32 -8 13 -24 -22 -26 -8 -4 23 17 25 39 30 30 7z m-156 -5 c0 -5 -4 -10
-9 -10 -6 0 -13 5 -16 10 -3 6 1 10 9 10 9 0 16 -4 16 -10z m262 -12 c-16 -20
-72 -50 -72 -40 0 11 59 52 74 52 5 0 4 -6 -2 -12z"/>
<path d="M1888 4265 c-26 -7 -68 -25 -93 -39 l-45 -27 0 -1619 0 -1619 -157
-3 -158 -3 -167 -290 -168 -290 0 -116 0 -117 653 -6 c358 -4 987 -6 1397 -4
l745 3 -3 135 -4 135 -121 210 c-66 116 -138 240 -160 278 l-39 67 -173 0
-173 0 -6 36 c-4 19 -25 153 -46 297 -21 144 -57 384 -80 532 -22 149 -61 405
-86 570 -25 165 -63 417 -84 560 -22 143 -52 342 -67 442 l-27 182 -40 15
c-62 23 -166 46 -213 46 -100 0 -216 -42 -291 -105 l-42 -37 0 350 0 349 -47
26 c-98 52 -211 68 -305 42z m788 -680 c105 -24 111 -29 123 -99 5 -33 13 -83
17 -109 l6 -48 -88 7 c-112 8 -247 -14 -351 -57 -41 -17 -75 -30 -77 -28 -2 2
-10 51 -19 109 l-16 105 25 26 c32 34 128 86 180 98 59 14 132 12 200 -4z
m-366 -645 c22 -146 60 -400 85 -565 25 -165 61 -403 80 -530 88 -580 124
-822 127 -850 l3 -30 -182 -3 -183 -2 1 1207 c1 1061 3 1198 15 1123 8 -47 32
-204 54 -350z m516 347 c3 -3 8 -29 11 -58 l5 -54 -148 0 c-146 0 -151 -1
-254 -37 -57 -20 -106 -35 -109 -33 -2 2 -7 24 -12 47 -7 38 -5 45 14 60 28
22 148 66 212 78 51 9 271 7 281 -3z m18 -157 c10 -10 21 -83 207 -1320 22
-146 58 -380 79 -521 22 -141 40 -268 40 -282 0 -21 -9 -28 -64 -50 -106 -43
-216 -61 -335 -54 -62 4 -107 11 -111 18 -4 6 -10 30 -13 53 -7 46 -76 503
-137 911 -23 149 -59 387 -80 530 -22 143 -51 334 -64 425 -35 227 -37 212 32
243 56 26 150 51 222 60 51 7 213 -3 224 -13z m348 -2256 l3 -39 -73 -36 c-40
-20 -99 -42 -129 -48 -61 -12 -215 -15 -275 -5 -39 7 -40 8 -51 114 -1 8 4 14
13 12 8 -2 66 -4 130 -4 128 0 226 17 310 54 62 28 65 26 72 -48z m31 -196
l17 -113 -22 -18 c-48 -37 -148 -79 -214 -89 -55 -9 -90 -7 -173 6 -58 9 -106
18 -107 19 -4 3 -34 193 -34 210 0 10 31 13 143 13 152 -1 214 11 307 59 25
13 50 24 56 25 6 0 18 -49 27 -112z"/>
<path d="M2674 2986 c-3 -8 -4 -23 -2 -33 3 -11 6 -6 9 15 6 34 2 42 -7 18z"/>
<path d="M2706 2977 c3 -10 9 -15 12 -12 3 3 0 11 -7 18 -10 9 -11 8 -5 -6z"/>
<path d="M2751 2976 c-9 -11 -6 -12 14 -8 14 2 25 8 25 13 0 14 -26 11 -39 -5z"/>
<path d="M2580 2950 c0 -6 4 -9 9 -6 5 4 12 1 14 -4 3 -6 4 -5 3 2 -3 15 -26
23 -26 8z"/>
<path d="M2755 2950 c-3 -5 -12 -7 -20 -3 -9 3 -15 -1 -15 -10 0 -10 -7 -15
-20 -12 -18 3 -19 1 -9 -17 10 -18 9 -20 -5 -15 -8 3 -18 1 -22 -5 -4 -6 -3
-8 2 -5 26 16 27 -14 3 -88 l-26 -80 -22 65 c-16 48 -20 55 -15 25 3 -21 12
-52 20 -68 13 -23 13 -46 5 -137 -6 -59 -8 -131 -4 -159 3 -28 3 -51 0 -51
-18 0 -60 109 -63 162 -4 88 -54 156 -70 93 -9 -34 3 -72 29 -99 53 -53 130
-247 141 -356 2 -14 33 -82 69 -152 37 -69 67 -137 67 -152 0 -14 4 -26 9 -26
13 0 39 -112 52 -223 10 -85 9 -103 -7 -154 -18 -57 -72 -123 -137 -166 -15
-10 -27 -27 -27 -37 0 -21 15 -27 25 -10 4 6 10 8 15 5 5 -3 11 -1 14 4 3 4
-2 8 -12 7 -31 -2 -24 19 12 37 32 17 95 90 109 127 11 30 7 -40 -7 -112 -18
-95 -53 -186 -76 -201 -15 -9 -17 -14 -7 -26 8 -10 8 -13 1 -8 -7 4 -18 -1
-25 -11 -11 -14 -11 -15 0 -5 7 6 20 9 27 6 8 -3 14 1 14 10 0 9 7 14 18 13
12 -2 17 -12 17 -39 0 -19 3 -33 8 -30 13 8 7 58 -9 82 -16 22 -16 23 5 16 13
-4 21 -2 21 5 0 6 -4 9 -8 6 -24 -15 -25 16 -1 87 l26 77 16 -42 c9 -24 18
-52 20 -63 4 -16 5 -15 6 5 0 14 -9 45 -20 70 -19 42 -19 52 -9 153 7 59 9
130 5 158 -4 27 -4 49 -1 49 4 0 20 -28 36 -62 21 -43 30 -79 30 -112 0 -32 7
-60 22 -84 20 -32 22 -33 35 -16 7 10 13 28 13 41 0 28 -24 78 -43 90 -22 14
-99 183 -112 247 -7 33 -16 74 -21 90 -7 29 -7 29 29 -11 20 -22 45 -60 55
-84 21 -49 45 -74 62 -64 13 8 13 35 -1 35 -5 0 -7 -5 -3 -12 5 -7 3 -8 -5 -4
-7 5 -10 14 -7 21 3 9 -1 12 -12 10 -12 -2 -18 3 -18 15 0 14 3 16 13 8 7 -6
13 -7 13 -2 0 5 8 0 16 -11 10 -12 15 -14 12 -5 -3 8 -28 31 -56 50 -118 79
-178 209 -142 305 5 14 6 24 1 21 -11 -7 -24 41 -16 54 4 6 13 10 21 10 8 0
14 5 14 10 0 15 -16 12 -34 -5 -12 -12 -14 -33 -10 -103 l5 -87 -35 65 c-19
36 -35 77 -36 93 0 15 -4 27 -9 27 -23 0 -66 273 -54 345 9 58 63 137 115 170
26 17 50 40 54 53 7 26 1 37 -16 27 -9 -6 -9 -10 1 -16 11 -7 9 -13 -11 -28
-13 -11 -27 -18 -31 -16 -7 5 -66 -65 -92 -109 l-18 -31 6 55 c14 130 62 268
95 277 19 5 20 6 3 20 -10 8 -13 12 -7 9 7 -3 17 1 24 9 7 8 10 15 7 15 -3 0
-8 -4 -12 -10z m-230 -321 c-5 -14 -3 -19 3 -15 6 3 15 -8 21 -26 15 -43 12
-49 -5 -13 l-15 30 6 -29 c5 -25 4 -28 -9 -17 -17 14 -31 66 -21 81 12 19 26
10 20 -11z m429 -915 c3 -8 2 -12 -4 -9 -6 3 -10 10 -10 16 0 14 7 11 14 -7z
m46 -289 c0 -13 -6 -25 -14 -28 -18 -7 -40 51 -30 78 7 17 9 16 26 -5 10 -12
18 -32 18 -45z"/>
<path d="M2961 1460 c0 -8 4 -24 9 -35 5 -13 9 -14 9 -5 0 8 -4 24 -9 35 -5
13 -9 14 -9 5z"/>
<path d="M2776 2944 c-4 -9 -1 -23 6 -31 9 -11 9 -16 -3 -24 -8 -5 -9 -9 -3
-9 5 0 19 7 30 15 19 14 19 15 -2 21 -15 4 -20 11 -17 25 6 23 -2 25 -11 3z"/>
<path d="M2607 2900 c-6 -21 -9 -22 -17 -10 -5 8 -10 11 -10 5 0 -5 4 -16 9
-24 7 -11 11 -9 21 8 6 12 10 27 7 34 -2 6 -7 0 -10 -13z"/>
<path d="M2717 2875 c-4 -8 -1 -17 6 -21 7 -4 9 -4 5 1 -4 4 -3 14 3 22 7 8 8
13 1 13 -5 0 -12 -7 -15 -15z"/>
<path d="M2725 2479 c-4 -6 -4 -13 -1 -16 3 -4 6 -1 6 6 0 7 5 9 12 5 7 -4 8
-3 4 4 -9 15 -13 15 -21 1z"/>
<path d="M2670 2452 c0 -5 10 -17 22 -28 16 -13 19 -14 10 -2 -9 11 -10 18 -2
23 6 4 10 3 9 -2 -1 -4 0 -10 1 -13 7 -19 7 -39 -1 -34 -5 3 -9 0 -9 -5 0 -13
11 -14 35 -5 13 5 14 8 3 15 -10 7 -9 9 3 9 25 0 45 28 31 42 -8 8 -15 8 -27
-2 -12 -10 -19 -10 -27 -2 -14 14 -48 16 -48 4z m94 -23 c-3 -5 -10 -7 -15 -3
-5 3 -7 10 -3 15 3 5 10 7 15 3 5 -3 7 -10 3 -15z"/>
<path d="M2824 2374 c5 -14 4 -15 -9 -4 -14 11 -19 7 -16 -13 1 -4 -14 -20
-31 -36 -23 -20 -35 -26 -40 -18 -5 7 -8 2 -8 -13 0 -14 -3 -36 -6 -50 -4 -14
4 -5 17 20 14 26 42 57 67 73 39 26 56 57 31 57 -6 0 -8 -7 -5 -16z"/>
<path d="M2517 2353 c-4 -3 -7 -19 -7 -34 0 -21 10 -35 38 -55 20 -15 55 -41
77 -57 l40 -30 -32 34 c-18 19 -39 52 -48 74 -25 59 -51 86 -68 68z m38 -24
c12 -18 12 -57 1 -55 -24 4 -36 18 -34 41 2 25 22 34 33 14z"/>
<path d="M2722 2003 c-1 -17 -7 -44 -12 -59 -8 -21 -7 -29 6 -39 21 -15 12
-47 -11 -39 -10 4 -15 0 -15 -15 0 -12 4 -21 9 -21 17 0 41 43 41 73 0 23 -4
28 -16 23 -14 -5 -15 -4 -5 8 7 8 11 33 8 58 -3 33 -4 35 -5 11z"/>
<path d="M2781 1808 c-15 -50 -32 -72 -83 -104 -36 -23 -51 -54 -27 -54 6 0 9
7 6 15 -7 18 9 30 19 14 5 -8 3 -9 -6 -4 -9 5 -11 4 -6 -4 4 -6 12 -9 17 -5 5
3 7 9 5 13 -3 4 10 22 28 40 24 23 35 29 39 19 3 -7 6 -1 6 13 1 14 6 40 12
58 6 18 9 34 7 37 -3 2 -10 -15 -17 -38z"/>
<path d="M2760 1650 c-13 -9 -13 -10 0 -10 8 0 4 -6 -10 -13 -28 -14 -40 -47
-17 -47 8 0 17 -7 21 -15 6 -17 26 -20 26 -4 0 5 -4 7 -10 4 -9 -6 -14 8 -11
28 1 5 -2 6 -7 3 -5 -3 -9 1 -9 8 0 7 6 13 14 13 7 0 11 -3 8 -5 -10 -10 18
-32 41 -32 28 0 31 12 7 31 -16 12 -17 12 -6 -2 10 -13 10 -16 -2 -16 -8 0
-13 2 -11 5 3 2 1 15 -5 29 -6 16 -6 22 1 18 6 -3 10 -1 10 4 0 14 -20 14 -40
1z"/>
<path d="M2767 1170 c-3 -11 -1 -20 4 -20 5 0 9 9 9 20 0 11 -2 20 -4 20 -2 0
-6 -9 -9 -20z"/>
<path d="M2897 1174 c-11 -11 -8 -26 3 -19 6 3 10 1 10 -6 0 -7 3 -10 6 -6 3
3 2 13 -3 22 -5 8 -12 12 -16 9z"/>
<path d="M2702 1148 c-16 -16 -15 -28 2 -28 10 0 13 -10 11 -35 -3 -31 -1 -34
19 -33 13 1 23 8 23 15 0 9 -4 10 -14 2 -9 -8 -14 -7 -19 4 -3 9 -3 21 1 26 3
6 1 19 -4 30 -8 14 -8 21 2 24 6 3 7 6 2 6 -6 1 -16 -4 -23 -11z"/>
<path d="M2886 1120 c8 -31 21 -46 31 -36 4 4 3 10 -3 14 -6 4 -16 16 -23 27
-11 18 -11 18 -5 -5z"/>
<path d="M2551 4110 l-42 -88 -57 19 c-31 11 -61 18 -66 16 -6 -2 17 -33 51
-68 l61 -64 -54 -93 c-31 -51 -54 -97 -52 -103 2 -5 39 24 84 65 91 84 73 87
142 -24 l34 -55 -7 101 -7 101 72 49 c81 54 80 58 -21 69 l-55 6 -13 74 c-7
41 -16 77 -20 79 -4 3 -27 -35 -50 -84z m29 -84 l-22 -21 18 35 c10 21 19 30
22 21 2 -7 -6 -23 -18 -35z m30 -9 c0 -2 -10 -12 -21 -23 -22 -19 -22 -19 -8
4 12 19 29 30 29 19z m110 -11 c0 -3 -15 -14 -32 -26 l-33 -22 28 26 c27 25
37 31 37 22z"/>
</g>
</svg>
