<?xml version="1.0" standalone="no"?>
<!DOCTYPE svg PUBLIC "-//W3C//DTD SVG 20010904//EN"
 "http://www.w3.org/TR/2001/REC-SVG-20010904/DTD/svg10.dtd">
<svg version="1.0" xmlns="http://www.w3.org/2000/svg"
 width="500.000000pt" height="500.000000pt" viewBox="0 0 500.000000 500.000000"
 preserveAspectRatio="xMidYMid meet">
<metadata>
Created by potrace 1.14, written by Peter Selinger 2001-2017
</metadata>
<g transform="translate(0.000000,500.000000) scale(0.100000,-0.100000)"
fill="#000000" stroke="none">
<path d="M1988 4847 c-9 -13 -30 -54 -46 -90 l-30 -66 -61 24 c-78 30 -79 16
-4 -60 46 -46 55 -60 46 -73 -5 -10 -21 -37 -35 -62 -14 -25 -35 -62 -47 -84
-28 -48 -21 -56 17 -19 99 93 131 123 135 123 3 0 10 -13 17 -30 7 -16 19 -35
27 -41 12 -11 13 -8 7 17 -4 16 -4 26 0 23 4 -4 9 -26 11 -50 2 -23 11 -49 19
-58 15 -14 16 -12 16 22 0 28 -3 36 -12 31 -10 -6 -10 -5 -1 8 7 8 10 17 7 20
-3 3 -8 29 -11 56 l-5 51 72 47 c40 25 68 50 63 55 -4 4 -35 11 -68 15 -59 6
-69 9 -71 22 -3 41 -18 120 -23 130 -6 10 -12 7 -23 -11z m-7 -90 c-10 -9 -11
-8 -5 6 3 10 9 15 12 12 3 -3 0 -11 -7 -18z m-1 -61 l-21 -21 18 32 c10 18 20
28 22 22 2 -6 -6 -21 -19 -33z m16 -32 c-19 -19 -21 -11 -4 16 7 11 14 16 16
10 2 -5 -4 -17 -12 -26z m134 12 c0 -2 -7 -7 -16 -10 -8 -3 -12 -2 -9 4 6 10
25 14 25 6z m-40 -20 c0 -2 -8 -10 -17 -17 -16 -13 -17 -12 -4 4 13 16 21 21
21 13z"/>
<path d="M1998 4285 c-2 -3 -27 -8 -54 -11 -27 -3 -53 -6 -58 -7 -5 -1 -37
-16 -70 -32 l-61 -31 -3 -1624 -2 -1625 -153 1 c-123 1 -155 -1 -169 -14 -10
-8 -18 -19 -18 -24 0 -4 -18 -38 -40 -74 -22 -36 -40 -68 -40 -71 0 -2 -16
-29 -35 -59 -19 -30 -35 -59 -35 -64 0 -6 -5 -10 -12 -10 -6 0 -8 -3 -5 -7 4
-3 3 -11 -2 -17 -8 -10 -21 -31 -79 -136 -14 -25 -28 -47 -31 -50 -20 -17 -28
-58 -30 -159 -1 -63 -4 -118 -7 -122 -2 -4 2 -9 9 -11 6 -3 636 -6 1399 -7
1338 -3 1386 -2 1391 16 3 10 4 70 2 133 -2 124 -2 122 -81 255 -19 33 -38 68
-41 77 -3 10 -9 18 -14 18 -4 0 -13 16 -20 35 -7 19 -15 35 -19 35 -3 0 -21
30 -40 68 -19 37 -38 68 -42 70 -5 2 -8 10 -8 18 0 8 -5 14 -11 14 -5 0 -8 4
-5 9 3 5 -1 14 -9 21 -8 7 -15 19 -15 26 0 8 -4 14 -10 14 -5 0 -10 6 -10 13
0 7 -9 13 -20 13 -11 0 -20 -4 -20 -8 0 -4 -10 -4 -22 0 -13 5 -32 7 -43 6
-41 -6 -61 -6 -107 -1 -31 3 -45 1 -41 -6 4 -6 1 -7 -7 -2 -17 10 -54 12 -60
3 -18 -24 -33 24 -55 168 -25 166 -35 232 -40 274 -5 37 -34 221 -39 250 -3
14 -7 41 -10 60 -2 19 -8 58 -12 85 -4 28 -8 61 -10 75 -1 14 -3 25 -4 25 -1
0 -3 14 -5 31 -2 16 -6 47 -9 67 -3 20 -8 54 -11 75 -3 20 -10 60 -16 88 -5
28 -11 70 -14 95 -2 24 -4 44 -5 44 -2 0 -8 39 -14 95 -3 25 -8 61 -11 80 -24
143 -35 211 -40 250 -6 47 -12 81 -19 116 -2 11 -7 45 -10 75 -3 30 -8 63 -10
74 -2 11 -6 41 -10 66 -4 25 -9 57 -11 70 -2 13 -6 42 -9 64 -4 22 -8 51 -11
65 -3 14 -7 41 -9 60 -6 44 -16 108 -22 140 -3 14 -7 43 -8 65 -4 52 -15 77
-32 71 -8 -3 -14 -1 -14 4 0 5 -17 12 -37 16 -21 4 -42 10 -48 14 -12 9 -17 9
-130 14 -61 2 -99 -1 -116 -10 -15 -7 -29 -11 -32 -8 -3 3 -16 -2 -29 -10 -14
-9 -28 -13 -31 -9 -4 3 -7 1 -7 -5 0 -6 -10 -14 -22 -18 -12 -3 -36 -19 -52
-35 -17 -16 -34 -29 -38 -29 -9 0 -14 114 -8 175 3 28 3 92 0 143 -3 52 -2 96
3 99 4 2 5 8 2 13 -3 5 -5 37 -5 72 2 201 7 182 -61 218 -32 17 -59 29 -59 27
0 -3 -20 1 -45 9 -25 7 -45 10 -45 7 0 -3 -6 0 -13 6 -8 6 -16 9 -19 6z m267
-1050 c5 -40 10 -70 20 -135 12 -79 44 -288 50 -325 3 -22 8 -58 12 -80 3 -22
6 -50 6 -62 1 -13 4 -23 7 -23 3 0 6 -8 6 -17 1 -42 18 -172 30 -221 2 -13 7
-42 9 -65 3 -23 7 -53 10 -67 3 -14 8 -49 11 -78 6 -57 11 -87 15 -87 1 0 3
-18 4 -40 2 -22 6 -53 9 -70 3 -16 8 -41 10 -55 3 -14 8 -42 11 -62 8 -60 16
-111 21 -138 2 -14 6 -43 9 -65 8 -60 15 -107 20 -135 3 -14 6 -37 7 -52 0
-16 4 -28 7 -28 3 0 6 -17 7 -38 0 -20 4 -55 8 -77 3 -22 8 -51 11 -65 2 -14
7 -43 10 -65 4 -22 9 -56 10 -75 2 -19 4 -35 5 -35 1 0 3 -15 5 -34 2 -19 6
-46 10 -59 5 -19 3 -23 -9 -19 -9 4 -16 3 -16 -1 0 -4 -11 -7 -25 -7 -14 0
-25 4 -25 9 0 5 -6 3 -13 -3 -8 -6 -17 -8 -20 -4 -4 3 -61 6 -127 5 -66 0
-122 4 -125 9 -8 12 -8 316 0 328 3 5 1 12 -5 16 -6 4 -8 10 -5 15 4 6 9 310
5 330 -6 30 -3 260 3 260 5 0 5 5 2 10 -5 9 -9 300 -4 326 1 5 0 14 -1 19 -1
6 -1 26 0 46 4 99 4 309 0 309 -4 0 -4 27 1 155 0 6 0 35 0 65 0 30 0 64 0 75
0 11 0 85 0 165 1 80 1 150 1 155 0 6 -1 15 -2 20 -1 6 -1 35 0 65 l2 55 9
-55 c5 -30 11 -73 14 -95z"/>
<path d="M2551 4110 l-42 -88 -57 19 c-31 11 -61 18 -66 16 -6 -2 17 -33 51
-68 l62 -65 -55 -92 c-31 -51 -54 -97 -52 -103 2 -6 39 24 83 65 l80 75 43
-66 c23 -37 42 -70 42 -75 0 -4 4 -8 8 -8 5 0 4 28 -1 63 -12 88 -12 140 2
145 6 2 34 19 61 38 27 19 54 34 60 34 5 0 10 4 10 10 0 10 -70 25 -136 29 -6
1 -17 35 -23 76 -7 41 -16 77 -20 80 -4 2 -27 -36 -50 -85z m29 -84 l-22 -21
18 35 c10 21 19 30 22 21 2 -7 -6 -23 -18 -35z m30 -9 c0 -2 -10 -12 -21 -23
-22 -19 -22 -19 -8 4 12 19 29 30 29 19z m110 -10 c0 -2 -15 -13 -32 -26 l-33
-22 28 25 c26 24 37 31 37 23z m-95 -37 c-3 -5 -12 -10 -18 -10 -7 0 -6 4 3
10 19 12 23 12 15 0z m-5 -155 c0 -8 -2 -15 -4 -15 -2 0 -6 7 -10 15 -3 8 -1
15 4 15 6 0 10 -7 10 -15z"/>
</g>
</svg>
